<svg xmlns="http://www.w3.org/2000/svg" viewBox="0 0 400 180" role="img" aria-labelledby="title desc">
  <title id="title">Zasons logo</title>
  <desc id="desc">Stylized Z with scalpel and company name Zasons</desc>
  <defs>
    <linearGradient id="grad" x1="0%" y1="0%" x2="100%" y2="100%">
      <stop offset="0%" stop-color="#0d6b8d" />
      <stop offset="100%" stop-color="#109c8d" />
    </linearGradient>
    <linearGradient id="grad2" x1="0%" y1="0%" x2="100%" y2="0%">
      <stop offset="0%" stop-color="#0d3f72" />
      <stop offset="100%" stop-color="#0b632f" />
    </linearGradient>
  </defs>
  <rect width="400" height="180" rx="24" fill="white" />
  <circle cx="90" cy="90" r="70" fill="none" stroke="url(#grad)" stroke-width="14" />
  <path d="M 52 58 L 138 58 L 98 120 L 168 120" fill="none" stroke="url(#grad2)" stroke-width="18" stroke-linecap="round" />
  <path d="M 62 125 L 96 76 L 151 76 L 128 110 L 164 110" fill="none" stroke="url(#grad2)" stroke-width="18" stroke-linecap="round" />
  <path d="M 262 50 L 320 50 L 330 48 L 332 44 L 335 38 L 332 34 L 320 32 L 262 32 L 250 56 Z" fill="#0d3f72" />
  <path d="M 280 32 L 286 98" stroke="#0d3f72" stroke-width="10" stroke-linecap="round" />
  <path d="M 290 45 L 295 72" stroke="#0d3f72" stroke-width="6" stroke-linecap="round" />
  <text x="210" y="140" font-family="Segoe UI, Arial, sans-serif" font-size="32" fill="#0b4f75" font-weight="700">Zasons</text>
</svg>
